<svg width="310" height="172" viewBox="0 0 310 172" fill="none" xmlns="http://www.w3.org/2000/svg">
<path d="M177.099 28.1223C144.956 18.9072 50.7685 34.8469 22.8612 54.2734C26.3497 55.0205 28.8414 55.7677 31.5823 56.0168C36.5657 56.7639 41.5492 57.2621 46.5326 58.2583C50.7685 59.2545 52.7619 61.7451 51.7652 64.7338C50.7685 68.4696 48.0276 68.7187 44.7884 68.4697C32.0806 67.2244 19.1237 65.73 6.16672 63.9866C0.186584 63.2394 -1.55762 59.0055 1.43245 53.5262C2.67831 51.2847 4.67168 49.2922 5.91754 47.0507C14.8877 32.8544 23.6088 18.9072 32.3298 4.96001C33.0773 3.71472 33.5756 2.22038 34.5723 1.72226C36.5657 0.726031 39.3066 -0.519256 40.8016 0.227917C42.5458 0.975089 44.0409 3.71472 44.0409 5.70718C44.0409 7.9487 42.795 10.1902 41.7983 12.4317C38.3099 18.6582 34.3232 24.6355 30.8348 30.862C29.8381 32.6054 29.0906 34.3488 27.8447 36.8394C29.5889 36.5903 30.3364 36.5903 30.8348 36.3412C76.6824 17.6619 124.773 12.9298 173.61 14.9223C180.836 15.1714 188.062 16.4166 194.79 18.4091C203.262 21.1487 211.734 21.8959 220.455 21.3978C237.648 20.6506 254.342 23.1412 270.289 30.3639C279.259 34.3488 287.482 39.828 294.459 47.0507C309.908 63.7376 313.894 83.164 306.17 104.583C299.941 121.519 288.23 134.719 273.778 145.179C246.369 165.104 215.222 173.323 181.335 171.828C178.843 171.828 176.6 171.081 174.358 170.583C171.368 170.085 169.624 168.342 169.873 165.104C170.122 161.866 172.614 160.87 175.355 160.87C176.85 160.87 178.594 161.119 180.089 161.119C206.501 162.613 231.169 156.138 254.342 143.685C267.05 136.711 278.014 127.496 286.735 115.791C292.216 108.07 296.452 99.8509 297.698 90.3867C299.691 74.6961 294.21 61.496 282.249 51.5337C267.299 38.5828 249.359 34.0997 228.677 33.1035C230.172 35.345 231.169 36.8394 232.166 38.0846C232.913 39.0809 233.91 40.0771 234.907 41.0733C248.611 56.764 251.352 75.9414 241.884 94.3716C239.641 98.6056 237.149 102.84 234.159 106.326C208.245 135.964 175.604 146.176 137.73 138.704C120.786 135.217 108.576 125.006 104.091 107.323C101.101 95.6169 103.842 84.6584 109.822 74.447C115.304 65.2319 122.779 57.7602 131.5 51.2847C143.211 42.5677 156.418 36.0922 170.122 30.862C172.365 30.1148 174.358 29.1186 177.099 28.1223ZM157.913 130.734C176.351 129.489 195.538 123.511 209.74 113.549C218.711 107.323 226.435 99.6018 231.418 89.6395C238.395 75.1942 236.9 61.7451 226.186 49.7903C221.701 44.8092 215.72 40.8243 209.99 37.0884C207.498 35.5941 203.76 35.096 201.019 35.345C175.105 39.579 151.434 48.7941 131.749 66.4772C126.517 71.2093 122.032 77.1867 118.793 83.164C109.822 100.349 116.55 118.032 134.49 124.757C141.716 127.994 149.939 128.742 157.913 130.734Z" fill="#0D1927"/>
</svg>
