<?xml version="1.0" encoding="UTF-8"?>
<svg id="Layer_2" data-name="Layer 2" xmlns="http://www.w3.org/2000/svg" viewBox="0 0 101.25 41.48">
  <g id="OBJECTS">
    <path d="M101,38.63c-1.94-2.24-3.23-4.51-4.16-7.33-.36-1.09-2.09-.62-1.73,.48,.49,1.48,1.09,2.84,1.81,4.13-17.09-11.67-40.01-2.43-58.99-8.22-5.13-1.57-9.86-4.28-13.83-7.87,4.71-2.36,10.95-6.61,10.49-12.64-.79-10.42-18.83-8.92-19.71,.79-.38,4.2,2.94,8.46,6.37,11.72-6.55,2.93-13.64,4.06-20.79,3.69-.62-.03-.61,.91,0,.96,7.52,.53,14.95-.63,21.83-3.68,1.03,.92,2.03,1.74,2.92,2.42,6.22,4.82,13.56,7.29,21.34,8.09,16.83,1.74,36.8-3.87,51.1,7.51l-9.48,1.02c-1.13,.12-1.15,1.9,0,1.79,3.93-.37,7.86-.74,11.8-1.12,.19-.02,.37-.1,.52-.22,.71-.15,1.04-.92,.53-1.51ZM19.84,3.37c2.44-1.7,5.87-2.15,8.69-1.25,5.95,1.9,4.74,8.69,1.13,12.25-1.88,1.85-4.22,3.28-6.6,4.47-.31-.3-.62-.59-.91-.9-3.55-3.73-8.02-10.6-2.32-14.57Z"/>
  </g>
</svg>